<svg width="1539" height="550" viewBox="0 0 1539 550" fill="none" xmlns="http://www.w3.org/2000/svg">
<g filter="url(#filter0_d_513_196)">
<path d="M130 542C121.163 542 114 534.837 114 526V16C114 7.16343 121.163 0 130 0H1488C1496.84 0 1504 7.16344 1504 16V526C1504 534.837 1496.84 542 1488 542H130Z" fill="white" shape-rendering="crispEdges"/>
<rect width="542" height="208" transform="matrix(0 -1 1 0 114 542)" fill="white"/>
<g filter="url(#filter1_d_513_196)">
<path d="M547 522C558.046 522 567 530.954 567 542H527C527 530.954 535.954 522 547 522Z" fill="#BCA0D0"/>
<circle cx="547" cy="497.765" r="6" transform="rotate(-90 547 497.765)" fill="#BCA0D0"/>
<circle cx="547" cy="467.529" r="6" transform="rotate(-90 547 467.529)" fill="#BCA0D0"/>
<circle cx="547" cy="437.294" r="6" transform="rotate(-90 547 437.294)" fill="#BCA0D0"/>
<circle cx="547" cy="407.059" r="6" transform="rotate(-90 547 407.059)" fill="#BCA0D0"/>
<circle cx="547" cy="376.824" r="6" transform="rotate(-90 547 376.824)" fill="#BCA0D0"/>
<circle cx="547" cy="346.588" r="6" transform="rotate(-90 547 346.588)" fill="#BCA0D0"/>
<circle cx="547" cy="316.353" r="6" transform="rotate(-90 547 316.353)" fill="#BCA0D0"/>
<circle cx="547" cy="286.118" r="6" transform="rotate(-90 547 286.118)" fill="#BCA0D0"/>
<circle cx="547" cy="255.882" r="6" transform="rotate(-90 547 255.882)" fill="#BCA0D0"/>
<circle cx="547" cy="225.647" r="6" transform="rotate(-90 547 225.647)" fill="#BCA0D0"/>
<circle cx="547" cy="195.412" r="6" transform="rotate(-90 547 195.412)" fill="#BCA0D0"/>
<circle cx="547" cy="165.176" r="6" transform="rotate(-90 547 165.176)" fill="#BCA0D0"/>
<circle cx="547" cy="134.941" r="6" transform="rotate(-90 547 134.941)" fill="#BCA0D0"/>
<circle cx="547" cy="104.706" r="6" transform="rotate(-90 547 104.706)" fill="#BCA0D0"/>
<circle cx="547" cy="74.4707" r="6" transform="rotate(-90 547 74.4707)" fill="#BCA0D0"/>
<circle cx="547" cy="44.2354" r="6" transform="rotate(-90 547 44.2354)" fill="#BCA0D0"/>
<path d="M547 20C535.954 20 527 11.0457 527 -3.49691e-06L567 0C567 11.0457 558.046 20 547 20Z" fill="#BCA0D0"/>
</g>
<rect x="597" y="31" width="888" height="140" rx="16" fill="#D9D9D9"/>
</g>
<defs>
<filter id="filter0_d_513_196" x="0" y="0" width="1539" height="550" filterUnits="userSpaceOnUse" color-interpolation-filters="sRGB">
<feFlood flood-opacity="0" result="BackgroundImageFix"/>
<feColorMatrix in="SourceAlpha" type="matrix" values="0 0 0 0 0 0 0 0 0 0 0 0 0 0 0 0 0 0 127 0" result="hardAlpha"/>
<feOffset dy="4"/>
<feGaussianBlur stdDeviation="2"/>
<feComposite in2="hardAlpha" operator="out"/>
<feColorMatrix type="matrix" values="0 0 0 0 0 0 0 0 0 0 0 0 0 0 0 0 0 0 0.25 0"/>
<feBlend mode="normal" in2="BackgroundImageFix" result="effect1_dropShadow_513_196"/>
<feBlend mode="normal" in="SourceGraphic" in2="effect1_dropShadow_513_196" result="shape"/>
</filter>
<filter id="filter1_d_513_196" x="523" y="0" width="48" height="550" filterUnits="userSpaceOnUse" color-interpolation-filters="sRGB">
<feFlood flood-opacity="0" result="BackgroundImageFix"/>
<feColorMatrix in="SourceAlpha" type="matrix" values="0 0 0 0 0 0 0 0 0 0 0 0 0 0 0 0 0 0 127 0" result="hardAlpha"/>
<feOffset dy="4"/>
<feGaussianBlur stdDeviation="2"/>
<feComposite in2="hardAlpha" operator="out"/>
<feColorMatrix type="matrix" values="0 0 0 0 0 0 0 0 0 0 0 0 0 0 0 0 0 0 0.25 0"/>
<feBlend mode="normal" in2="BackgroundImageFix" result="effect1_dropShadow_513_196"/>
<feBlend mode="normal" in="SourceGraphic" in2="effect1_dropShadow_513_196" result="shape"/>
</filter>
</defs>
</svg>
