<svg width="67" height="71" viewBox="0 0 67 71" fill="none" xmlns="http://www.w3.org/2000/svg">
<path d="M33.0509 6.64685C20.1631 6.64685 9.67847 17.7002 9.67847 31.2873C9.67847 37.1372 11.6706 42.8146 15.3057 47.3006C15.7209 47.7978 25.5168 59.5324 28.7889 62.8212C29.9837 64.0228 31.5166 64.6243 33.0509 64.6243C34.5853 64.6243 36.1182 64.0228 37.3144 62.8212C41.1186 58.9961 50.4085 47.7688 50.8154 47.276C54.4313 42.8146 56.4234 37.1372 56.4234 31.2873C56.4234 17.7002 45.9388 6.64685 33.0509 6.64685ZM33.0509 38.5344C29.255 38.5344 26.1767 35.2891 26.1767 31.2873C26.1767 27.2854 29.255 24.0401 33.0509 24.0401C36.8469 24.0401 39.9252 27.2854 39.9252 31.2873C39.9252 35.2891 36.8469 38.5344 33.0509 38.5344Z" fill="white"/>
</svg>
