<svg width="69" height="56" viewBox="0 0 69 56" fill="none" xmlns="http://www.w3.org/2000/svg">
<path d="M62.2937 42.5009C62.2937 43.3208 62.0669 44.1636 61.5851 44.9835C61.1033 45.8035 60.4797 46.5779 59.6578 47.3068C58.269 48.5367 56.7384 49.425 55.0095 49.9944C53.3089 50.5639 51.4666 50.86 49.4826 50.86C46.5916 50.86 43.5022 50.3133 40.2427 49.1973C36.9833 48.0812 33.7238 46.5779 30.4927 44.6874C27.2333 42.7742 24.1439 40.6559 21.1962 38.3099C18.2768 35.9411 15.6409 33.4585 13.2885 30.8619C10.9643 28.2653 9.09368 25.6688 7.73321 23.095C6.37274 20.4984 5.6925 18.0158 5.6925 15.647C5.6925 14.0981 6.03262 12.6176 6.71286 11.251C7.39309 9.86164 8.47013 8.58614 9.97231 7.4473C11.7863 6.01236 13.7703 5.30627 15.8677 5.30627C16.6613 5.30627 17.4549 5.44294 18.1635 5.71626C18.9004 5.98958 19.5523 6.39956 20.0625 6.99176L26.6381 14.4398C27.1482 15.0092 27.5167 15.5331 27.7718 16.0342C28.0269 16.5125 28.1686 16.9908 28.1686 17.4236C28.1686 17.9702 27.9702 18.5168 27.5734 19.0407C27.2049 19.5646 26.6664 20.1112 25.9862 20.6579L23.8321 22.4572C23.5203 22.7078 23.3786 23.0039 23.3786 23.3683C23.3786 23.5505 23.4069 23.71 23.4636 23.8922C23.5487 24.0744 23.6337 24.2111 23.6904 24.3477C24.2006 25.0994 25.0792 26.0788 26.3263 27.2632C27.6017 28.4476 28.9622 29.6547 30.436 30.8619C31.9666 32.0691 33.4404 33.1851 34.9426 34.2101C36.4164 35.2123 37.6352 35.8956 38.5988 36.3056C38.7406 36.3511 38.9106 36.4194 39.109 36.4878C39.3358 36.5561 39.5625 36.5789 39.8176 36.5789C40.2994 36.5789 40.6679 36.4422 40.9797 36.1917L43.1337 34.4834C43.8423 33.914 44.5226 33.4812 45.1744 33.2079C45.8263 32.889 46.4782 32.7296 47.1868 32.7296C47.7253 32.7296 48.2922 32.8207 48.9157 33.0257C49.5393 33.2307 50.1912 33.5268 50.8998 33.914L60.2813 39.2666C61.0182 39.6765 61.5284 40.1548 61.8402 40.7243C62.1236 41.2937 62.2937 41.8631 62.2937 42.5009Z" stroke="white" stroke-width="1.5" stroke-miterlimit="10"/>
</svg>
