<svg width="61" height="52" viewBox="0 0 61 52" fill="none" xmlns="http://www.w3.org/2000/svg">
<g clip-path="url(#clip0_466_313)">
<path d="M60.118 9.10717C57.9225 10.0115 55.5598 10.6215 53.0807 10.8945C55.6119 9.49024 57.5528 7.26594 58.4681 4.61251C56.1005 5.91451 53.4795 6.85927 50.6876 7.36929C48.4533 5.16296 45.2687 3.78345 41.7445 3.78345C34.9787 3.78345 29.4931 8.86676 29.4931 15.1375C29.4931 16.0261 29.601 16.8922 29.8108 17.7247C19.6275 17.2506 10.5984 12.7312 4.55513 5.86171C3.50043 7.5378 2.89671 9.48799 2.89671 11.5707C2.89671 15.5093 5.05944 18.9851 8.34717 21.0207C6.33962 20.9611 4.44966 20.45 2.79731 19.5996C2.79609 19.6468 2.79609 19.6951 2.79609 19.7434C2.79609 25.2435 7.01971 29.8314 12.6253 30.8761C11.5973 31.1345 10.5147 31.2738 9.39701 31.2738C8.6066 31.2738 7.83922 31.203 7.09124 31.0693C8.65145 35.5797 13.1757 38.8634 18.5365 38.9544C14.3432 41.9999 9.06121 43.8153 3.3198 43.8153C2.33179 43.8153 1.35589 43.7613 0.396973 43.6557C5.82076 46.8787 12.2604 48.757 19.179 48.757C41.7166 48.757 54.0396 31.4569 54.0396 16.453C54.0396 15.9609 54.0287 15.47 54.0056 14.9825C56.3987 13.385 58.4766 11.3843 60.118 9.10717Z" fill="white"/>
</g>
<defs>
<clipPath id="clip0_466_313">
<rect width="60.1373" height="51.7465" fill="white" transform="translate(0.359009 0.144287)"/>
</clipPath>
</defs>
</svg>
