<svg width="61" height="56" viewBox="0 0 61 56" fill="none" xmlns="http://www.w3.org/2000/svg">
<g clip-path="url(#clip0_466_315)">
<path d="M30.74 28.4159C30.983 28.3419 31.2284 28.2758 31.4751 28.2097C31.0074 27.238 30.497 26.2641 29.9634 25.3025C20.3671 27.9407 11.159 27.7502 10.8294 27.739C10.8232 27.9228 10.8135 28.0999 10.8135 28.2837C10.8135 32.6792 12.6194 36.6847 15.5891 39.714C15.5866 39.7096 15.5817 39.7051 15.5817 39.7051C15.5817 39.7051 20.6833 31.4015 30.74 28.4159Z" fill="white"/>
<path d="M28.4175 22.6699C25.1927 17.4091 21.7469 13.1167 21.499 12.813C16.3009 15.0657 12.4216 19.4612 11.2128 24.7589C11.7036 24.7634 19.4696 24.8531 28.4175 22.6699Z" fill="white"/>
<path d="M41.7588 15.4466C38.4766 12.7916 34.1675 11.1799 29.4505 11.1799C27.9364 11.1799 26.4675 11.348 25.0571 11.6596C25.338 12.0037 28.84 16.267 32.0257 21.6398C39.059 19.2179 41.7136 15.5093 41.7588 15.4466Z" fill="white"/>
<path d="M24.9871 11.677C24.9653 11.6791 24.9471 11.6812 24.9253 11.6897C24.9605 11.6812 24.9823 11.677 24.9823 11.677H24.9871Z" fill="white"/>
<path d="M17.9945 41.7691L17.9982 41.7623C17.8602 41.6636 17.7137 41.5738 17.5781 41.4683C17.826 41.6534 17.9945 41.7691 17.9945 41.7691Z" fill="white"/>
<path d="M33.4592 24.1877C33.8927 25.0047 34.3103 25.8341 34.6998 26.6679C34.8354 26.9683 34.9697 27.2608 35.1003 27.5544C41.5036 26.8147 47.8116 28.0599 48.0814 28.1103C48.0387 24.0543 46.4574 20.3335 43.8431 17.4185C43.8065 17.4644 40.8186 21.4296 33.4592 24.1877Z" fill="white"/>
<path d="M32.6216 31.0823C21.6223 34.6025 18.0324 41.6946 17.9982 41.7618C21.1595 44.0268 25.128 45.3885 29.4493 45.3885C32.0294 45.3885 34.4886 44.9066 36.7256 44.0335C36.4484 42.5385 35.3666 37.3001 32.7425 31.0442C32.7034 31.0588 32.6631 31.07 32.6216 31.0823Z" fill="white"/>
<path d="M29.4505 0.686768C12.844 0.686768 -0.618164 13.0451 -0.618164 28.2849C-0.618164 43.5269 12.8428 55.8808 29.4505 55.8808C46.0569 55.8808 59.5191 43.5269 59.5191 28.2849C59.5191 13.0451 46.0557 0.686768 29.4505 0.686768ZM49.5565 36.0819C49.0107 37.271 48.333 38.4153 47.5442 39.4833C46.7639 40.5447 45.8677 41.541 44.8798 42.4477C43.892 43.3521 42.8077 44.1747 41.6526 44.8931C40.4864 45.616 39.2361 46.2369 37.9442 46.7401C36.6254 47.25 35.2469 47.6423 33.8451 47.9068C32.4067 48.178 30.928 48.3159 29.4493 48.3159C27.9706 48.3159 26.4919 48.178 25.0534 47.9068C23.6517 47.6423 22.2706 47.25 20.9543 46.7401C19.66 46.2369 18.4109 45.6149 17.2448 44.8931C16.0908 44.1747 15.0041 43.3521 14.0175 42.4477C13.0296 41.541 12.1334 40.5458 11.3531 39.4833C10.5655 38.4153 9.88907 37.2699 9.34082 36.0819C8.78401 34.8715 8.35542 33.6062 8.06725 32.3173C7.77542 30.9971 7.62645 29.6421 7.62645 28.2849C7.62645 26.9277 7.77542 25.5705 8.06725 24.2525C8.35542 22.9637 8.78401 21.6961 9.34082 20.488C9.88907 19.2989 10.5668 18.1523 11.3531 17.0832C12.1334 16.0218 13.0296 15.0277 14.0175 14.1188C15.0041 13.2144 16.0896 12.394 17.2448 11.6756C18.4109 10.9516 19.66 10.3296 20.9543 9.82638C22.2706 9.3142 23.6517 8.92194 25.0534 8.65969C26.4919 8.39072 27.9706 8.25286 29.4493 8.25286C30.928 8.25286 32.4067 8.39072 33.8451 8.65969C35.2469 8.92194 36.6254 9.3142 37.9442 9.82638C39.2373 10.3296 40.4864 10.9516 41.6526 11.6756C42.8065 12.394 43.892 13.2144 44.8798 14.1188C45.8677 15.0277 46.7639 16.0207 47.5442 17.0832C48.333 18.1512 49.0107 19.2989 49.5565 20.488C50.1145 21.6961 50.5419 22.9637 50.8276 24.2525C51.1231 25.5705 51.2733 26.9277 51.2733 28.2849C51.2733 29.6421 51.1231 30.9971 50.8276 32.3173C50.5419 33.6062 50.1157 34.8715 49.5565 36.0819Z" fill="white"/>
<path d="M36.2371 30.2528C38.6816 36.4191 39.6731 41.44 39.8648 42.4711C44.0482 39.8799 47.0215 35.7646 47.8494 30.997C47.4659 30.8838 42.252 29.3685 36.2371 30.2528Z" fill="white"/>
</g>
<defs>
<clipPath id="clip0_466_315">
<rect width="60.1373" height="55.1963" fill="white" transform="translate(0.426758 0.144287)"/>
</clipPath>
</defs>
</svg>
