<svg width="62" height="58" viewBox="0 0 62 58" fill="none" xmlns="http://www.w3.org/2000/svg">
<path d="M10.2531 48.2591C8.85713 48.2591 7.66207 47.7887 6.66794 46.848C5.67382 45.9072 5.17676 44.7763 5.17676 43.4553V14.6322C5.17676 13.3112 5.67382 12.1803 6.66794 11.2395C7.66207 10.2987 8.85713 9.82837 10.2531 9.82837H50.8641C52.2602 9.82837 53.4552 10.2987 54.4493 11.2395C55.4435 12.1803 55.9405 13.3112 55.9405 14.6322V43.4553C55.9405 44.7763 55.4435 45.9072 54.4493 46.848C53.4552 47.7887 52.2602 48.2591 50.8641 48.2591H10.2531ZM30.5586 31.4457L10.2531 19.4361V43.4553H50.8641V19.4361L30.5586 31.4457ZM30.5586 26.6418L50.8641 14.6322H10.2531L30.5586 26.6418ZM10.2531 19.4361V14.6322V43.4553V19.4361Z" fill="#FEF7FF"/>
</svg>
