<svg width="61" height="56" viewBox="0 0 61 56" fill="none" xmlns="http://www.w3.org/2000/svg">
<path d="M46.0682 5.39819H13.8064C8.20243 5.39819 3.64331 9.58175 3.64331 14.7253V24.5781V44.3373C3.64331 49.4809 8.20243 53.6644 13.8064 53.6644H46.0692C51.6732 53.6644 56.2312 49.4809 56.2312 44.3373V24.5771V14.7243C56.2302 9.58078 51.6721 5.39819 46.0682 5.39819ZM48.9831 10.9604L50.1457 10.9565V12.0187V19.1376L41.2619 19.1639L41.2311 10.9837L48.9831 10.9604ZM22.4314 24.5771C24.1159 22.4381 26.8484 21.0352 29.9373 21.0352C33.0262 21.0352 35.7587 22.4381 37.441 24.5771C38.5368 25.9733 39.1934 27.681 39.1934 29.5308C39.1934 34.2148 35.0374 38.0255 29.9362 38.0255C24.8319 38.0255 20.6801 34.2148 20.6801 29.5308C20.6811 27.681 21.3356 25.9733 22.4314 24.5771ZM51.1067 44.3364C51.1067 46.8882 48.8463 48.961 46.0682 48.961H13.8064C11.0272 48.961 8.76675 46.8882 8.76675 44.3364V24.5771H16.6163C15.9385 26.1076 15.5577 27.7793 15.5577 29.5308C15.5577 36.8065 22.0071 42.7299 29.9373 42.7299C37.8664 42.7299 44.3158 36.8065 44.3158 29.5308C44.3158 27.7793 43.9329 26.1076 43.255 24.5771H51.1067V44.3364Z" fill="white"/>
</svg>
